<svg width="181" height="62" viewBox="0 0 181 62" fill="none" xmlns="http://www.w3.org/2000/svg">
<g clip-path="url(#clip0_173_4205)">
<path d="M50.9338 7.58063L45.4957 2.14143C43.6781 0.323487 41.0404 -0.405516 38.5488 0.221171L30.8986 2.14143L26.6935 3.19748L3.27709 9.07884C1.28965 9.57763 0 11.359 0 13.2793C0 13.7963 0.0931615 14.3225 0.292271 14.8378L9.99385 39.9911L11.2524 43.2561L17.7701 60.1566C18.245 61.3899 19.3502 62.0001 20.4553 62.0001C21.5605 62.0001 22.7278 61.3533 23.1753 60.0689L28.8691 43.7494C29.0883 43.1191 29.7057 42.719 30.3706 42.7738L38.293 43.4352C41.7528 43.7257 44.9385 41.5387 45.914 38.2061L46.9625 34.6195L52.8116 14.6861C53.5094 12.152 52.7915 9.43877 50.9338 7.58063ZM42.741 8.55812L36.8719 33.0464C36.596 34.1938 35.5713 35.0051 34.3894 35.0069L23.1662 35.027C22.2583 35.027 21.4893 35.6975 21.3614 36.5983L20.4206 43.2415L19.4854 49.2106C19.4269 49.5796 18.9173 49.6344 18.7839 49.2855L16.4567 43.247L13.1504 34.6762L5.48374 14.8031C5.2481 14.1892 5.60248 13.5058 6.23999 13.3451L25.877 8.41195L39.1808 5.07023C41.2979 4.53855 43.2288 6.4314 42.741 8.55812Z" fill="white"/>
<path d="M50.9338 7.58063L45.4957 2.14143C43.6781 0.323487 41.0404 -0.405516 38.5488 0.221171L30.8986 2.14143L26.6935 3.19748L3.27709 9.07884C1.28965 9.57763 0 11.359 0 13.2793C0 13.7963 0.0931615 14.3225 0.292271 14.8378L9.99385 39.9911L11.2524 43.2561L17.7701 60.1566C18.245 61.3899 19.3502 62.0001 20.4553 62.0001C21.5605 62.0001 22.7278 61.3533 23.1753 60.0689L28.8691 43.7494C29.0883 43.1191 29.7057 42.719 30.3706 42.7738L38.293 43.4352C41.7528 43.7257 44.9385 41.5387 45.914 38.2061L46.9625 34.6195L52.8116 14.6861C53.5094 12.152 52.7915 9.43877 50.9338 7.58063ZM42.741 8.55812L36.8719 33.0464C36.596 34.1938 35.5713 35.0051 34.3894 35.0069L23.1662 35.027C22.2583 35.027 21.4893 35.6975 21.3614 36.5983L20.4206 43.2415L19.4854 49.2106C19.4269 49.5796 18.9173 49.6344 18.7839 49.2855L16.4567 43.247L13.1504 34.6762L5.48374 14.8031C5.2481 14.1892 5.60248 13.5058 6.23999 13.3451L25.877 8.41195L39.1808 5.07023C41.2979 4.53855 43.2288 6.4314 42.741 8.55812Z" fill="url(#paint0_linear_173_4205)"/>
<path d="M42.7412 8.55795L36.872 33.0463C36.5962 34.1937 35.5714 35.0049 34.3895 35.0067L23.1663 35.0268C22.2584 35.0268 21.4894 35.6973 21.3615 36.5981L20.4208 43.2413L19.4855 49.2104C19.4271 49.5795 18.9174 49.6343 18.7841 49.2853L16.4568 43.2468L13.1505 34.676L5.48388 14.8029C5.24824 14.189 5.60262 13.5057 6.24014 13.3449L25.8771 8.41179L39.181 5.07006C41.2981 4.53838 43.2289 6.43123 42.7412 8.55795Z" fill="white"/>
<path d="M30.2079 18.0917L26.2038 18.8334C25.875 18.8937 25.5444 18.7384 25.3836 18.4461L23.4619 14.971C23.1021 14.3187 22.1175 14.5015 22.0152 15.2396L21.4653 19.1733C21.4197 19.504 21.1658 19.7689 20.8388 19.8292L16.8347 20.571C16.0894 20.7099 15.9633 21.7239 16.6538 22.04L20.2762 23.699C20.5885 23.8415 20.7694 24.1722 20.7219 24.512L20.1519 28.5864C20.046 29.3391 20.9758 29.7795 21.4909 29.2185L24.3113 26.1545C24.5451 25.9006 24.9178 25.8312 25.2265 25.9846L28.9584 27.8336C29.6398 28.1716 30.3504 27.428 29.9814 26.763L27.9903 23.1636C27.8241 22.864 27.8752 22.4894 28.1145 22.2446L30.9021 19.398C31.4318 18.8572 30.9514 17.9546 30.2061 18.0917H30.2079Z" fill="url(#paint1_linear_173_4205)"/>
<path fill-rule="evenodd" clip-rule="evenodd" d="M70.2563 46.4148V13.9513C70.2563 13.4617 70.6491 13.0195 71.1898 13.0195H82.4021C88.4502 13.0195 93.417 17.9234 93.417 23.8559C93.417 29.7884 88.4502 34.8896 82.4514 34.8896H75.3218V46.413C75.3218 46.9027 74.8797 47.3448 74.3883 47.3448H71.1916C70.6509 47.3448 70.2582 46.9027 70.2582 46.413L70.2563 46.4148ZM75.3218 30.0862H82.3052C85.6974 30.0862 88.3534 27.3402 88.3534 23.8102C88.3534 20.4758 85.6974 17.9252 82.3052 17.9252H75.3218V30.0862ZM95.631 36.0188C95.631 29.6441 100.106 24.2012 106.942 24.2012C112.842 24.2012 117.318 28.5661 117.318 34.5973C117.318 34.9901 117.268 35.7739 117.219 36.1668C117.17 36.7551 116.678 37.1479 116.187 37.1479H100.499C100.548 40.1882 103.301 43.3271 107.285 43.3271C109.892 43.3271 111.465 42.3953 112.842 41.4141C113.333 41.0706 113.776 40.9245 114.17 41.5128L115.498 43.5719C115.891 44.0616 116.088 44.5037 115.399 45.092C113.777 46.5135 110.776 47.8875 106.991 47.8875C100.106 47.8875 95.631 42.4939 95.631 36.0206V36.0188ZM100.746 33.5175H112.449C112.351 30.7714 110.188 28.3688 106.843 28.3688C103.254 28.3688 101.089 30.6727 100.746 33.5175ZM127.498 46.3162V57.9382C127.498 58.5758 127.056 59.0162 126.318 59.0162H123.563C122.973 59.0162 122.482 58.5265 122.482 57.9382V25.7707C122.482 25.2317 122.973 24.6927 123.563 24.6927H124.792C125.284 24.6927 125.58 24.8882 125.775 25.429L126.365 26.8998C126.758 26.507 129.315 24.2031 133.495 24.2031C139.74 24.2031 144.216 29.5473 144.216 36.0206C144.216 42.4939 139.495 47.8875 133.299 47.8875C130.349 47.8875 127.89 46.5628 127.496 46.318L127.498 46.3162ZM127.399 41.5603C127.399 41.5603 129.611 43.2284 132.66 43.2284C136.348 43.2284 139.298 40.0895 139.298 36.0206C139.298 31.9517 136.741 28.8621 132.855 28.8621C129.56 28.8621 127.595 31.3634 127.397 32.0504V41.5639L127.399 41.5603ZM149.478 37.4896C149.478 43.4221 151.15 47.8856 157.936 47.8856C162.559 47.8856 164.623 45.2875 165.115 44.796L165.705 46.4148C165.902 46.9538 166.147 47.3466 166.737 47.3466H167.917C168.507 47.3466 169.048 46.857 169.048 46.2687V25.7707C169.048 25.2317 168.507 24.6927 167.917 24.6927H165.409C164.572 24.6927 164.13 24.8407 164.13 25.7707V39.5012C163.933 40.5316 162.114 43.2284 158.82 43.2284C155.919 43.2284 154.394 41.5603 154.394 37.8349V25.7725C154.394 25.2335 153.903 24.6945 153.313 24.6945H150.558C150.017 24.6945 149.476 25.2335 149.476 25.7725V37.4914L149.478 37.4896ZM176.082 46.2668C176.082 46.8552 176.574 47.3448 177.164 47.3448H179.918C180.459 47.3448 181 46.8552 181 46.2668V14.0993C181 13.5603 180.459 13.0214 179.918 13.0214H177.164C176.574 13.0214 176.082 13.5603 176.082 14.0993V46.2668Z" fill="#fff"/>
</g>
<defs>
<linearGradient id="paint0_linear_173_4205" x1="42.3824" y1="56.144" x2="4.76605" y2="12.4045" gradientUnits="userSpaceOnUse">
<stop stop-color="#FF0057"/>
<stop offset="1" stop-color="#FF4A00"/>
</linearGradient>
<linearGradient id="paint1_linear_173_4205" x1="16.199" y1="22.0199" x2="31.1267" y2="22.0199" gradientUnits="userSpaceOnUse">
<stop stop-color="#FF4B00"/>
<stop offset="1" stop-color="#FF0057"/>
</linearGradient>
<clipPath id="clip0_173_4205">
<rect width="181" height="62" fill="white"/>
</clipPath>
</defs>
</svg>
